<svg width="605" height="58" viewBox="0 0 605 58" fill="none" xmlns="http://www.w3.org/2000/svg">
<path d="M25.704 15.096C25.704 15.512 25.192 16.056 24.168 16.728C23.176 17.4 21.832 18.168 20.136 19.032C18.44 19.896 16.568 20.824 14.52 21.816C12.504 22.808 10.472 23.832 8.424 24.888C10.152 26.104 11.88 27.24 13.608 28.296C15.336 29.352 16.904 30.312 18.312 31.176C19.752 32.04 20.888 32.808 21.72 33.48C22.584 34.12 23.016 34.648 23.016 35.064C23.016 35.672 22.792 36.264 22.344 36.84C21.896 37.384 21.176 37.656 20.184 37.656C19.896 37.656 19.304 37.464 18.408 37.08C17.512 36.664 16.424 36.12 15.144 35.448C13.864 34.744 12.472 33.96 10.968 33.096C9.496 32.232 8.008 31.32 6.504 30.36C5.032 29.368 3.656 28.392 2.376 27.432C1.8 27.016 1.4 26.6 1.176 26.184C0.984 25.736 0.888 25.32 0.888 24.936C0.888 24.392 1.032 23.88 1.32 23.4C1.64 22.888 2.168 22.424 2.904 22.008C4.376 21.112 5.944 20.232 7.608 19.368C9.304 18.472 10.984 17.64 12.648 16.872C14.344 16.072 15.928 15.384 17.4 14.808C18.872 14.2 20.12 13.72 21.144 13.368C22.2 13.016 22.92 12.84 23.304 12.84C24.2 12.84 24.824 13.032 25.176 13.416C25.528 13.768 25.704 14.328 25.704 15.096ZM41.3351 46.728C40.0231 46.728 39.0311 46.52 38.3591 46.104C37.7191 45.72 37.2871 45.272 37.0631 44.76C36.8711 44.248 36.7751 43.848 36.7751 43.56C36.7751 42.632 37.1911 41.864 38.0231 41.256C38.8871 40.616 39.8471 40.296 40.9031 40.296C41.9271 40.296 43.1911 40.152 44.6951 39.864C46.2311 39.544 47.8471 39.096 49.5431 38.52C51.2711 37.944 52.9191 37.224 54.4871 36.36C56.0871 35.496 57.4791 34.504 58.6631 33.384C59.8471 32.264 60.6631 31.032 61.1111 29.688C60.4071 29.56 59.7031 29.464 58.9991 29.4C58.2951 29.304 57.5911 29.256 56.8871 29.256C54.5191 29.256 52.0711 29.512 49.5431 30.024C47.0151 30.536 44.5031 31.032 42.0071 31.512C41.3991 31.64 40.8551 31.528 40.3751 31.176C40.3111 31.848 40.2471 32.472 40.1831 33.048C40.1511 33.592 40.1191 34.184 40.0871 34.824C40.0231 36.392 39.8791 37.608 39.6551 38.472C39.4631 39.304 39.2391 39.896 38.9831 40.248C38.7271 40.6 38.4551 40.808 38.1671 40.872C37.8791 40.936 37.6071 40.968 37.3511 40.968C37.2551 40.968 37.1911 40.968 37.1591 40.968C36.5831 40.968 36.0391 40.824 35.5271 40.536C35.0151 40.248 34.5991 39.656 34.2791 38.76C33.9591 37.832 33.7991 36.44 33.7991 34.584C33.7991 28.696 34.4391 23.704 35.7191 19.608C37.0311 15.48 38.9031 12.344 41.3351 10.2C43.7991 8.024 46.7431 6.936 50.1671 6.936C52.8551 6.936 54.9511 7.672 56.4551 9.144C57.9591 10.584 58.7111 12.664 58.7111 15.384C58.7111 16.76 58.4391 18.136 57.8951 19.512C57.3511 20.888 56.5831 22.248 55.5911 23.592C56.1991 23.464 56.7911 23.368 57.3671 23.304C57.9431 23.208 58.4871 23.16 58.9991 23.16C62.0071 23.16 64.2311 23.704 65.6711 24.792C67.1111 25.848 67.8311 27.272 67.8311 29.064C67.8311 30.856 67.3191 32.536 66.2951 34.104C65.3031 35.672 63.9751 37.112 62.3111 38.424C60.6791 39.704 58.8711 40.872 56.8871 41.928C54.9031 42.952 52.9191 43.832 50.9351 44.568C48.9511 45.272 47.1111 45.8 45.4151 46.152C43.7191 46.536 42.3591 46.728 41.3351 46.728ZM40.9511 26.232C41.1431 26.136 41.3511 26.072 41.5751 26.04C44.4551 25.56 46.6631 24.904 48.1991 24.072C49.7351 23.24 50.7911 22.2 51.3671 20.952C51.9431 19.704 52.2311 18.216 52.2311 16.488C52.2311 16.04 52.1671 15.56 52.0391 15.048C51.9111 14.536 51.6551 14.104 51.2711 13.752C50.9191 13.368 50.3751 13.176 49.6391 13.176C47.2071 13.176 45.3031 14.28 43.9271 16.488C42.5831 18.664 41.5911 21.912 40.9511 26.232ZM78.0874 46.824C77.0634 46.824 76.1354 46.536 75.3034 45.96C74.4714 45.416 73.8154 44.696 73.3354 43.8C72.8554 42.872 72.6154 41.88 72.6154 40.824C72.6154 38.84 73.0474 36.904 73.9114 35.016C74.8074 33.128 75.9754 31.336 77.4154 29.64C78.8554 27.944 80.4234 26.392 82.1194 24.984C83.8474 23.544 85.5594 22.312 87.2554 21.288C88.9834 20.264 90.5514 19.464 91.9594 18.888C93.3994 18.312 94.5194 18.024 95.3194 18.024C96.2474 18.024 96.9994 18.232 97.5754 18.648C98.1834 19.032 98.4874 19.64 98.4874 20.472C98.4874 20.728 98.4234 20.936 98.2954 21.096C98.7114 21.192 99.0474 21.432 99.3034 21.816C99.5594 22.2 99.6874 22.776 99.6874 23.544C99.6874 23.864 99.6074 24.696 99.4474 26.04C99.2874 27.384 99.1114 29.016 98.9194 30.936C98.7594 32.856 98.6794 34.856 98.6794 36.936C98.6794 37.256 98.7274 37.544 98.8234 37.8C98.9194 38.024 99.1274 38.136 99.4474 38.136C100.727 38.136 102.023 37.88 103.335 37.368C104.679 36.824 105.975 36.168 107.223 35.4C108.503 34.6 109.655 33.816 110.679 33.048C111.735 32.248 112.615 31.592 113.319 31.08C114.055 30.536 114.535 30.264 114.759 30.264C115.847 30.264 116.391 30.808 116.391 31.896C116.391 32.184 116.039 32.792 115.335 33.72C114.663 34.616 113.735 35.656 112.551 36.84C111.367 37.992 110.039 39.144 108.567 40.296C107.127 41.416 105.623 42.344 104.055 43.08C102.519 43.816 101.031 44.184 99.5914 44.184C97.8314 44.184 96.4874 43.768 95.5594 42.936C94.6634 42.104 94.0234 40.984 93.6394 39.576C93.2874 38.136 93.0954 36.52 93.0634 34.728C91.4314 37.064 89.7354 39.144 87.9754 40.968C86.2474 42.76 84.5354 44.184 82.8394 45.24C81.1434 46.296 79.5594 46.824 78.0874 46.824ZM95.0794 22.776C91.9434 24.28 89.1274 26.008 86.6314 27.96C84.1354 29.88 82.1514 31.896 80.6794 34.008C79.2394 36.12 78.5194 38.152 78.5194 40.104C78.5194 40.648 78.7754 40.92 79.2874 40.92C79.8954 40.92 80.6954 40.568 81.6874 39.864C82.7114 39.16 83.8154 38.232 84.9994 37.08C86.1834 35.896 87.3674 34.584 88.5514 33.144C89.7354 31.672 90.8394 30.168 91.8634 28.632C92.8874 27.096 93.7034 25.624 94.3114 24.216C94.5354 23.704 94.7914 23.224 95.0794 22.776ZM114.725 47.112C113.925 47.112 113.237 46.824 112.661 46.248C112.117 45.672 111.845 44.84 111.845 43.752C111.845 43.272 111.909 42.488 112.037 41.4C112.197 40.28 112.389 39 112.613 37.56C112.869 36.12 113.109 34.616 113.333 33.048C113.589 31.48 113.797 29.992 113.957 28.584C114.149 27.176 114.277 25.976 114.341 24.984C114.405 23.768 114.725 22.904 115.301 22.392C115.877 21.848 116.565 21.576 117.365 21.576C118.005 21.576 118.581 21.736 119.093 22.056C119.637 22.344 119.973 22.968 120.101 23.928C120.261 24.856 120.277 26.2 120.149 27.96C121.557 25.4 122.981 23.112 124.421 21.096C125.893 19.08 127.429 17.48 129.029 16.296C131.685 14.28 134.085 13.272 136.229 13.272C137.445 13.272 138.245 13.544 138.629 14.088C139.013 14.632 139.205 15.192 139.205 15.768C139.205 16.152 139.109 16.504 138.917 16.824C138.757 17.144 138.405 17.48 137.861 17.832C137.317 18.184 136.485 18.648 135.365 19.224C133.861 19.992 132.373 21 130.901 22.248C129.461 23.496 128.021 25.096 126.581 27.048C125.141 29 123.685 31.4 122.213 34.248C120.741 37.096 119.221 40.488 117.653 44.424C117.365 45.512 116.949 46.232 116.405 46.584C115.893 46.936 115.333 47.112 114.725 47.112ZM170.635 20.808C170.635 21.192 170.507 21.528 170.251 21.816C169.995 22.104 169.675 22.328 169.291 22.488C168.747 22.712 167.803 23 166.459 23.352C165.115 23.704 163.483 24.104 161.563 24.552C159.675 25 157.643 25.464 155.467 25.944C153.291 26.392 151.115 26.824 148.939 27.24C148.107 30.312 147.259 33.48 146.395 36.744C145.531 39.976 144.667 43.16 143.803 46.296C143.483 47.416 143.099 48.264 142.651 48.84C142.203 49.448 141.435 49.752 140.347 49.752C139.163 49.752 138.363 49.368 137.947 48.6C137.563 47.864 137.515 46.856 137.803 45.576C138.635 42.088 139.403 38.84 140.107 35.832C140.843 32.824 141.435 30.392 141.883 28.536C139.963 28.856 138.283 29.112 136.843 29.304C135.403 29.464 134.379 29.528 133.771 29.496C133.099 29.432 132.539 29.16 132.091 28.68C131.643 28.2 131.435 27.608 131.467 26.904C131.531 26.264 131.819 25.72 132.331 25.272C132.843 24.792 133.451 24.504 134.155 24.408C135.147 24.312 136.427 24.168 137.995 23.976C139.563 23.784 141.291 23.56 143.179 23.304C143.595 21.672 144.075 19.992 144.619 18.264C145.163 16.504 145.723 14.824 146.299 13.224C146.907 11.592 147.483 10.168 148.027 8.952C148.571 7.736 149.067 6.856 149.515 6.312C149.867 5.896 150.299 5.576 150.811 5.352C151.355 5.128 151.883 5.016 152.395 5.016C153.067 5.016 153.611 5.256 154.027 5.736C154.443 6.216 154.651 6.776 154.651 7.416C154.651 7.672 154.635 7.944 154.603 8.232C154.571 8.488 154.507 8.744 154.411 9C153.803 10.6 153.147 12.536 152.443 14.808C151.771 17.08 151.067 19.576 150.331 22.296C152.731 21.944 155.083 21.592 157.387 21.24C159.723 20.856 161.835 20.504 163.723 20.184C165.643 19.832 167.179 19.528 168.331 19.272C168.971 19.048 169.515 19.096 169.963 19.416C170.411 19.704 170.635 20.168 170.635 20.808ZM174.94 47.4C172.06 47.4 169.788 46.52 168.124 44.76C166.492 42.968 165.676 40.424 165.676 37.128C165.676 35.848 165.804 34.408 166.06 32.808C166.316 31.208 166.652 29.496 167.068 27.672C165.916 28.376 164.908 28.936 164.044 29.352C163.212 29.736 162.62 29.912 162.268 29.88C161.5 29.816 160.924 29.56 160.54 29.112C160.156 28.632 159.964 28.136 159.964 27.624C159.964 26.6 160.476 25.8 161.5 25.224C162.588 24.584 163.772 23.864 165.052 23.064C166.332 22.264 167.676 21.416 169.084 20.52C169.82 18.12 170.588 15.768 171.388 13.464C172.22 11.128 173.02 8.984 173.788 7.032C174.588 5.048 175.292 3.368 175.9 1.992C176.476 0.807999 177.292 0.215999 178.348 0.215999C179.02 0.215999 179.564 0.423999 179.98 0.839999C180.428 1.256 180.652 1.928 180.652 2.856C180.652 3.272 180.444 4.152 180.028 5.496C179.644 6.808 179.132 8.44 178.492 10.392C177.852 12.344 177.18 14.44 176.476 16.68C177.212 16.2 177.948 15.72 178.684 15.24C179.452 14.728 180.204 14.232 180.94 13.752C181.004 13.72 181.1 13.656 181.228 13.56C181.612 13.304 181.964 13.112 182.284 12.984C182.636 12.824 183.052 12.76 183.532 12.792C184.716 12.888 185.308 13.544 185.308 14.76C185.308 15.016 184.988 15.464 184.348 16.104C183.74 16.744 182.908 17.496 181.852 18.36C180.796 19.224 179.612 20.152 178.3 21.144C176.988 22.136 175.628 23.112 174.22 24.072C173.388 26.952 172.668 29.72 172.06 32.376C171.484 35 171.196 37.208 171.196 39C171.196 39.64 171.372 40.152 171.724 40.536C172.108 40.92 172.604 41.112 173.212 41.112C174.812 41.112 176.412 40.792 178.012 40.152C179.612 39.512 181.148 38.712 182.62 37.752C184.124 36.792 185.484 35.848 186.7 34.92C187.948 33.96 189.004 33.16 189.868 32.52C190.732 31.88 191.34 31.56 191.692 31.56C192.972 31.56 193.612 32.2 193.612 33.48C193.612 33.736 193.324 34.264 192.748 35.064C192.204 35.832 191.436 36.744 190.444 37.8C189.452 38.856 188.332 39.944 187.084 41.064C185.836 42.184 184.508 43.224 183.1 44.184C181.692 45.144 180.284 45.912 178.876 46.488C177.5 47.096 176.188 47.4 174.94 47.4ZM198.388 46.584C196.116 46.584 194.292 45.784 192.916 44.184C191.54 42.552 190.852 40.376 190.852 37.656C190.852 36.792 190.964 35.912 191.188 35.016C191.444 34.12 191.748 33.288 192.1 32.52C191.908 32.232 191.748 31.864 191.62 31.416C191.524 30.936 191.476 30.376 191.476 29.736C191.476 27.656 191.844 25.752 192.58 24.024C193.316 22.264 194.308 20.744 195.556 19.464C196.804 18.184 198.18 17.192 199.684 16.488C201.188 15.784 202.708 15.432 204.244 15.432C206.868 15.432 209.012 16.312 210.676 18.072C212.372 19.832 213.22 22.568 213.22 26.28C213.22 28.136 212.932 30.024 212.356 31.944C211.78 33.864 210.996 35.704 210.004 37.464C209.044 39.192 207.924 40.744 206.644 42.12C205.396 43.496 204.052 44.584 202.612 45.384C201.204 46.184 199.796 46.584 198.388 46.584ZM197.62 30.36C197.78 30.712 197.86 31.128 197.86 31.608C197.86 32.088 197.764 32.584 197.572 33.096C197.38 33.608 197.188 34.296 196.996 35.16C196.804 35.992 196.708 37.192 196.708 38.76C196.708 39.176 196.756 39.528 196.852 39.816C196.98 40.072 197.252 40.2 197.668 40.2C198.756 40.2 199.78 39.848 200.74 39.144C201.732 38.44 202.612 37.512 203.38 36.36C204.18 35.208 204.852 33.928 205.396 32.52C205.972 31.08 206.404 29.624 206.692 28.152C207.012 26.648 207.172 25.256 207.172 23.976C207.172 23.144 207.012 22.568 206.692 22.248C206.372 21.928 205.812 21.768 205.012 21.768C203.924 21.768 202.804 22.12 201.652 22.824C200.532 23.496 199.588 24.424 198.82 25.608C198.052 26.76 197.668 28.072 197.668 29.544C197.668 29.832 197.652 30.104 197.62 30.36ZM262.104 43.896C261.912 45.624 260.888 46.488 259.032 46.488C258.072 46.488 257.304 46.2 256.728 45.624C256.184 45.048 255.912 44.216 255.912 43.128C255.912 41.272 255.992 39.288 256.152 37.176C256.344 35.032 256.568 32.872 256.824 30.696C257.112 28.52 257.384 26.44 257.64 24.456C256.488 26.12 255.272 27.832 253.992 29.592C252.712 31.352 251.432 33.064 250.152 34.728C248.872 36.392 247.64 37.896 246.456 39.24C245.304 40.552 244.248 41.608 243.288 42.408C242.328 43.176 241.528 43.56 240.888 43.56C239.352 43.56 238.024 43 236.904 41.88C235.784 40.728 235.224 39.272 235.224 37.512C235.224 36.904 235.288 36.088 235.416 35.064C235.544 34.008 235.704 32.888 235.896 31.704C236.088 30.52 236.248 29.4 236.376 28.344C236.504 27.288 236.568 26.456 236.568 25.848C236.568 25.848 236.568 25.816 236.568 25.752C236.6 25.592 236.568 25.512 236.472 25.512C236.344 25.512 235.992 25.944 235.416 26.808C234.84 27.64 234.136 28.728 233.304 30.072C232.472 31.416 231.592 32.824 230.664 34.296C229.768 35.768 228.92 37.144 228.12 38.424C227.352 39.704 226.712 40.696 226.2 41.4C225.496 42.488 224.84 43.176 224.232 43.464C223.624 43.752 222.92 43.896 222.12 43.896C221 43.896 220.12 43.528 219.48 42.792C218.872 42.024 218.568 40.952 218.568 39.576C218.568 39 218.664 38.104 218.856 36.888C219.08 35.672 219.352 34.328 219.672 32.856C219.992 31.352 220.312 29.896 220.632 28.488C220.984 27.048 221.288 25.832 221.544 24.84C221.832 23.528 222.232 22.616 222.744 22.104C223.288 21.56 223.976 21.288 224.808 21.288C226.76 21.288 227.736 22.248 227.736 24.168C227.736 24.52 227.624 25.096 227.4 25.896C227.176 26.696 226.904 27.624 226.584 28.68C226.264 29.736 225.928 30.824 225.576 31.944C225.224 33.032 224.936 34.056 224.712 35.016C225.48 33.672 226.312 32.232 227.208 30.696C228.104 29.16 229.016 27.656 229.944 26.184C230.904 24.712 231.848 23.368 232.776 22.152C233.736 20.936 234.68 19.976 235.608 19.272C236.536 18.536 237.416 18.168 238.248 18.168C239.08 18.168 239.896 18.472 240.696 19.08C241.496 19.656 242.152 20.408 242.664 21.336C243.208 22.232 243.48 23.192 243.48 24.216C243.48 25.176 243.352 26.328 243.096 27.672C242.84 29.016 242.552 30.424 242.232 31.896C241.912 33.368 241.688 34.808 241.56 36.216C242.648 35 243.8 33.624 245.016 32.088C246.232 30.52 247.48 28.904 248.76 27.24C250.04 25.576 251.288 23.96 252.504 22.392C253.752 20.824 254.904 19.4 255.96 18.12C257.048 16.84 258.008 15.832 258.84 15.096C259.672 14.328 260.312 13.944 260.76 13.944C262.072 13.944 263.096 14.296 263.832 15C264.6 15.672 264.984 16.856 264.984 18.552C264.984 19.608 264.904 20.984 264.744 22.68C264.616 24.376 264.424 26.216 264.168 28.2C263.944 30.152 263.688 32.136 263.4 34.152C263.144 36.136 262.904 37.976 262.68 39.672C262.456 41.368 262.264 42.776 262.104 43.896ZM274.306 45.72C273.41 45.72 272.61 45.416 271.906 44.808C271.234 44.2 270.898 43.208 270.898 41.832C270.898 41.096 270.994 40.056 271.186 38.712C271.41 37.368 271.698 35.912 272.05 34.344C272.402 32.744 272.786 31.16 273.202 29.592C273.65 28.024 274.082 26.632 274.498 25.416C274.914 24.168 275.282 23.24 275.602 22.632C276.018 21.896 276.402 21.448 276.754 21.288C277.138 21.096 277.506 21 277.858 21C278.498 21 279.09 21.192 279.634 21.576C280.21 21.96 280.498 22.808 280.498 24.12C280.498 24.632 280.402 25.464 280.21 26.616C280.018 27.736 279.778 29.048 279.49 30.552C279.202 32.056 278.882 33.608 278.53 35.208C278.21 36.808 277.89 38.328 277.57 39.768C277.282 41.176 277.042 42.36 276.85 43.32C276.69 44.12 276.354 44.712 275.842 45.096C275.362 45.512 274.85 45.72 274.306 45.72ZM279.826 16.248C278.77 16.248 277.794 15.944 276.898 15.336C276.002 14.696 275.554 13.72 275.554 12.408C275.554 11.32 275.826 10.44 276.37 9.768C276.914 9.096 277.554 8.616 278.29 8.328C279.058 8.008 279.73 7.848 280.306 7.848C280.882 7.848 281.522 7.976 282.226 8.232C282.93 8.456 283.538 8.888 284.05 9.528C284.594 10.136 284.866 11.016 284.866 12.168C284.866 12.936 284.594 13.64 284.05 14.28C283.506 14.888 282.834 15.368 282.034 15.72C281.266 16.072 280.53 16.248 279.826 16.248ZM293.984 46.632C292 46.632 290.4 45.944 289.184 44.568C287.968 43.16 287.36 40.904 287.36 37.8C287.36 35.816 287.584 33.832 288.032 31.848C288.512 29.832 289.168 27.928 290 26.136C290.864 24.312 291.856 22.696 292.976 21.288C294.128 19.88 295.392 18.776 296.768 17.976C298.144 17.144 299.568 16.728 301.04 16.728C303.536 16.728 305.488 17.4 306.896 18.744C308.304 20.088 309.008 21.8 309.008 23.88C309.008 25.48 308.56 26.936 307.664 28.248C306.8 29.528 305.616 30.68 304.112 31.704C302.608 32.728 300.928 33.656 299.072 34.488C297.216 35.32 295.312 36.072 293.36 36.744C293.2 37.896 293.12 38.92 293.12 39.816C293.12 40.36 293.424 40.632 294.032 40.632C295.472 40.632 297.008 40.408 298.64 39.96C300.304 39.48 301.984 38.872 303.68 38.136C305.376 37.368 307.008 36.584 308.576 35.784C310.144 34.952 311.568 34.168 312.848 33.432C314.16 32.664 315.232 32.056 316.064 31.608C316.928 31.128 317.488 30.888 317.744 30.888C318.448 30.888 318.96 31.096 319.28 31.512C319.6 31.928 319.76 32.376 319.76 32.856C319.76 33.08 319.328 33.576 318.464 34.344C317.632 35.112 316.48 36.024 315.008 37.08C313.568 38.104 311.936 39.176 310.112 40.296C308.32 41.384 306.448 42.424 304.496 43.416C302.576 44.376 300.704 45.144 298.88 45.72C297.088 46.328 295.456 46.632 293.984 46.632ZM294.176 32.472C295.488 31.704 296.784 30.904 298.064 30.072C299.376 29.208 300.464 28.248 301.328 27.192C302.192 26.104 302.624 24.84 302.624 23.4C302.624 22.984 302.512 22.712 302.288 22.584C302.064 22.424 301.744 22.344 301.328 22.344C300.208 22.344 299.184 22.84 298.256 23.832C297.36 24.824 296.56 26.104 295.856 27.672C295.184 29.208 294.624 30.808 294.176 32.472ZM312.742 57.816C310.95 57.816 309.478 57.432 308.326 56.664C307.142 55.928 306.55 54.84 306.55 53.4C306.55 52.472 307.03 51.608 307.99 50.808C308.918 50.008 310.214 49.192 311.878 48.36C313.542 47.56 315.478 46.664 317.686 45.672C318.198 43.912 318.726 41.624 319.27 38.808C319.846 35.96 320.47 32.408 321.142 28.152C321.462 26.072 321.766 24.456 322.054 23.304C322.342 22.152 322.63 21.32 322.918 20.808C323.206 20.296 323.494 19.992 323.782 19.896C324.102 19.768 324.438 19.704 324.79 19.704C325.142 19.704 325.638 19.896 326.278 20.28C326.918 20.632 327.494 21.128 328.006 21.768C328.518 22.376 328.774 23.096 328.774 23.928C328.774 24.376 328.694 25.032 328.534 25.896C328.374 26.76 328.102 27.704 327.718 28.728C327.334 29.752 326.806 30.728 326.134 31.656C325.238 36.136 324.406 39.896 323.638 42.936C326.454 41.528 329.158 39.96 331.75 38.232C334.342 36.472 336.502 34.392 338.23 31.992C338.486 31.672 338.726 31.432 338.95 31.272C339.174 31.112 339.478 31.032 339.862 31.032C340.406 31.032 340.806 31.224 341.062 31.608C341.318 31.992 341.446 32.488 341.446 33.096C341.446 34.44 340.886 35.784 339.766 37.128C338.678 38.472 337.19 39.816 335.302 41.16C333.414 42.472 331.302 43.752 328.966 45C326.662 46.28 324.294 47.528 321.862 48.744C320.998 51.272 320.102 53.176 319.174 54.456C318.278 55.768 317.302 56.648 316.246 57.096C315.19 57.576 314.022 57.816 312.742 57.816ZM325.558 15.672C324.694 15.672 323.958 15.416 323.35 14.904C322.742 14.36 322.438 13.496 322.438 12.312C322.438 11.448 322.662 10.648 323.11 9.912C323.59 9.144 324.198 8.536 324.934 8.088C325.67 7.64 326.438 7.416 327.238 7.416C328.454 7.416 329.446 7.768 330.214 8.472C331.014 9.176 331.414 10.072 331.414 11.16C331.414 12.152 331.094 12.984 330.454 13.656C329.814 14.296 329.014 14.616 328.054 14.616C328.022 14.616 327.99 14.616 327.958 14.616C327.926 14.616 327.894 14.616 327.862 14.616C327.35 15.064 326.918 15.352 326.566 15.48C326.246 15.608 325.91 15.672 325.558 15.672ZM365.176 46.872C363.896 46.872 362.936 46.52 362.296 45.816C361.656 45.112 361.336 44.392 361.336 43.656C361.336 42.792 361.496 42.136 361.816 41.688C362.136 41.24 362.76 40.904 363.688 40.68C364.904 40.424 366.168 40.104 367.48 39.72C368.824 39.336 370.104 38.936 371.32 38.52C372.568 38.072 373.656 37.624 374.584 37.176C375.512 36.696 376.184 36.248 376.6 35.832C376.088 35.544 375.272 35.208 374.152 34.824C373.032 34.408 371.784 33.928 370.408 33.384C369.064 32.808 367.768 32.136 366.52 31.368C365.272 30.6 364.248 29.704 363.448 28.68C362.648 27.656 362.248 26.488 362.248 25.176C362.248 23.352 362.712 21.64 363.64 20.04C364.568 18.44 365.8 16.952 367.336 15.576C368.872 14.2 370.536 12.936 372.328 11.784C374.152 10.632 375.96 9.592 377.752 8.664C379.576 7.704 381.208 6.856 382.648 6.12C383.192 5.8 383.704 5.592 384.184 5.496C384.696 5.368 385.16 5.304 385.576 5.304C387.016 5.304 388.008 5.656 388.552 6.36C389.096 7.064 389.368 7.784 389.368 8.52C389.368 9.032 389.128 9.64 388.648 10.344C388.168 11.016 387.4 11.64 386.344 12.216C385.32 12.792 383.96 13.208 382.264 13.464C381.976 13.496 381.72 13.528 381.496 13.56C380.216 14.2 378.84 14.968 377.368 15.864C375.896 16.76 374.504 17.704 373.192 18.696C371.912 19.656 370.856 20.616 370.024 21.576C369.192 22.536 368.776 23.4 368.776 24.168C368.776 25.032 369.128 25.816 369.832 26.52C370.536 27.192 371.432 27.816 372.52 28.392C373.64 28.936 374.808 29.464 376.024 29.976C377.272 30.488 378.44 31.016 379.528 31.56C380.648 32.072 381.56 32.648 382.264 33.288C382.968 33.928 383.32 34.648 383.32 35.448C383.32 36.536 382.952 37.576 382.216 38.568C381.48 39.56 380.52 40.488 379.336 41.352C378.152 42.184 376.856 42.936 375.448 43.608C374.04 44.28 372.648 44.856 371.272 45.336C369.928 45.848 368.712 46.232 367.624 46.488C366.536 46.744 365.72 46.872 365.176 46.872ZM395.572 46.824C394.548 46.824 393.62 46.536 392.788 45.96C391.956 45.416 391.3 44.696 390.82 43.8C390.34 42.872 390.1 41.88 390.1 40.824C390.1 38.84 390.532 36.904 391.396 35.016C392.292 33.128 393.46 31.336 394.9 29.64C396.34 27.944 397.908 26.392 399.604 24.984C401.332 23.544 403.044 22.312 404.74 21.288C406.468 20.264 408.036 19.464 409.444 18.888C410.884 18.312 412.004 18.024 412.804 18.024C413.732 18.024 414.484 18.232 415.06 18.648C415.668 19.032 415.972 19.64 415.972 20.472C415.972 20.728 415.908 20.936 415.78 21.096C416.196 21.192 416.532 21.432 416.788 21.816C417.044 22.2 417.172 22.776 417.172 23.544C417.172 23.864 417.092 24.696 416.932 26.04C416.772 27.384 416.596 29.016 416.404 30.936C416.244 32.856 416.164 34.856 416.164 36.936C416.164 37.256 416.212 37.544 416.308 37.8C416.404 38.024 416.612 38.136 416.932 38.136C418.212 38.136 419.508 37.88 420.82 37.368C422.164 36.824 423.46 36.168 424.708 35.4C425.988 34.6 427.14 33.816 428.164 33.048C429.22 32.248 430.1 31.592 430.804 31.08C431.54 30.536 432.02 30.264 432.244 30.264C433.332 30.264 433.876 30.808 433.876 31.896C433.876 32.184 433.524 32.792 432.82 33.72C432.148 34.616 431.22 35.656 430.036 36.84C428.852 37.992 427.524 39.144 426.052 40.296C424.612 41.416 423.108 42.344 421.54 43.08C420.004 43.816 418.516 44.184 417.076 44.184C415.316 44.184 413.972 43.768 413.044 42.936C412.148 42.104 411.508 40.984 411.124 39.576C410.772 38.136 410.58 36.52 410.548 34.728C408.916 37.064 407.22 39.144 405.46 40.968C403.732 42.76 402.02 44.184 400.324 45.24C398.628 46.296 397.044 46.824 395.572 46.824ZM412.564 22.776C409.428 24.28 406.612 26.008 404.116 27.96C401.62 29.88 399.636 31.896 398.164 34.008C396.724 36.12 396.004 38.152 396.004 40.104C396.004 40.648 396.26 40.92 396.772 40.92C397.38 40.92 398.18 40.568 399.172 39.864C400.196 39.16 401.3 38.232 402.484 37.08C403.668 35.896 404.852 34.584 406.036 33.144C407.22 31.672 408.324 30.168 409.348 28.632C410.372 27.096 411.188 25.624 411.796 24.216C412.02 23.704 412.276 23.224 412.564 22.776ZM449.866 19.32C451.626 15.128 453.178 10.808 454.522 6.36C454.778 5.464 455.146 4.776 455.626 4.296C456.138 3.816 456.842 3.576 457.738 3.576C458.474 3.576 459.034 3.8 459.418 4.248C459.802 4.664 459.994 5.24 459.994 5.976C459.994 6.584 459.738 7.672 459.226 9.24C458.714 10.776 458.09 12.728 457.354 15.096C456.618 17.464 455.882 20.2 455.146 23.304C454.41 26.408 453.786 29.816 453.274 33.528C452.762 37.24 452.506 41.208 452.506 45.432C452.506 46.584 452.282 47.528 451.834 48.264C451.418 49.032 450.682 49.416 449.626 49.416C448.474 49.416 447.626 49.016 447.082 48.216C446.57 47.416 446.314 46.392 446.314 45.144C446.314 42.68 446.394 40.632 446.554 39C446.746 37.336 446.938 35.912 447.13 34.728C445.562 37.416 443.898 39.736 442.138 41.688C440.41 43.608 438.746 45.08 437.146 46.104C435.546 47.16 434.17 47.688 433.018 47.688C431.13 47.688 429.594 47.16 428.41 46.104C427.226 45.048 426.634 43.448 426.634 41.304C426.634 39.64 427.034 37.928 427.834 36.168C428.634 34.376 429.69 32.616 431.002 30.888C432.314 29.16 433.754 27.544 435.322 26.04C436.922 24.504 438.522 23.16 440.122 22.008C441.722 20.824 443.21 19.896 444.586 19.224C445.962 18.552 447.082 18.216 447.946 18.216C448.906 18.216 449.546 18.584 449.866 19.32ZM448.762 21.912C448.57 22.04 448.362 22.168 448.138 22.296C447.946 22.392 447.754 22.504 447.562 22.632C446.346 23.4 445.05 24.328 443.674 25.416C442.298 26.472 440.938 27.656 439.594 28.968C438.25 30.248 437.018 31.592 435.898 33C434.81 34.376 433.93 35.752 433.258 37.128C432.618 38.472 432.298 39.768 432.298 41.016C432.298 41.24 432.394 41.4 432.586 41.496C432.778 41.592 432.954 41.64 433.114 41.64C434.234 41.64 435.434 41.144 436.714 40.152C438.026 39.16 439.354 37.784 440.698 36.024C442.074 34.232 443.434 32.136 444.778 29.736C446.154 27.336 447.482 24.728 448.762 21.912ZM482.843 46.2C482.523 46.2 481.915 46.184 481.019 46.152C480.123 46.12 479.051 46.072 477.803 46.008C476.555 45.944 475.259 45.88 473.915 45.816C472.603 45.752 471.355 45.704 470.171 45.672C468.987 45.64 468.027 45.624 467.291 45.624C466.139 45.624 465.179 45.272 464.411 44.568C463.675 43.832 463.307 42.808 463.307 41.496C463.307 40.728 463.723 39.72 464.555 38.472C465.419 37.192 466.539 35.784 467.915 34.248C469.291 32.68 470.779 31.096 472.379 29.496C474.011 27.896 475.627 26.392 477.227 24.984C478.859 23.544 480.299 22.312 481.547 21.288C479.435 21.576 477.403 21.912 475.451 22.296C473.499 22.68 471.803 23.016 470.363 23.304C468.955 23.592 467.995 23.736 467.483 23.736C466.555 23.736 465.819 23.48 465.275 22.968C464.731 22.424 464.459 21.704 464.459 20.808C464.459 20.424 464.859 20.024 465.659 19.608C466.459 19.16 467.547 18.744 468.923 18.36C470.299 17.976 471.851 17.624 473.579 17.304C475.339 16.984 477.163 16.744 479.051 16.584C480.971 16.392 482.859 16.296 484.715 16.296C485.611 16.296 486.363 16.52 486.971 16.968C487.611 17.384 488.091 17.928 488.411 18.6C488.763 19.24 488.939 19.896 488.939 20.568C488.939 20.824 488.587 21.352 487.883 22.152C487.179 22.952 486.251 23.944 485.099 25.128C483.947 26.28 482.667 27.544 481.259 28.92C479.851 30.264 478.443 31.64 477.035 33.048C475.659 34.424 474.379 35.736 473.195 36.984C472.011 38.232 471.051 39.32 470.315 40.248C471.563 40.216 472.971 40.168 474.539 40.104C476.107 40.04 477.627 39.976 479.099 39.912C480.571 39.848 481.851 39.8 482.939 39.768C484.027 39.736 484.715 39.72 485.003 39.72C486.027 39.72 486.763 39.96 487.211 40.44C487.659 40.92 487.883 41.48 487.883 42.12C487.883 43.08 487.419 44.008 486.491 44.904C485.595 45.768 484.379 46.2 482.843 46.2ZM498.462 46.824C497.438 46.824 496.51 46.536 495.678 45.96C494.846 45.416 494.19 44.696 493.71 43.8C493.23 42.872 492.99 41.88 492.99 40.824C492.99 38.84 493.422 36.904 494.286 35.016C495.182 33.128 496.35 31.336 497.79 29.64C499.23 27.944 500.798 26.392 502.494 24.984C504.222 23.544 505.934 22.312 507.63 21.288C509.358 20.264 510.926 19.464 512.334 18.888C513.774 18.312 514.894 18.024 515.694 18.024C516.622 18.024 517.374 18.232 517.95 18.648C518.558 19.032 518.862 19.64 518.862 20.472C518.862 20.728 518.798 20.936 518.67 21.096C519.086 21.192 519.422 21.432 519.678 21.816C519.934 22.2 520.062 22.776 520.062 23.544C520.062 23.864 519.982 24.696 519.822 26.04C519.662 27.384 519.486 29.016 519.294 30.936C519.134 32.856 519.054 34.856 519.054 36.936C519.054 37.256 519.102 37.544 519.198 37.8C519.294 38.024 519.502 38.136 519.822 38.136C521.102 38.136 522.398 37.88 523.71 37.368C525.054 36.824 526.35 36.168 527.598 35.4C528.878 34.6 530.03 33.816 531.054 33.048C532.11 32.248 532.99 31.592 533.694 31.08C534.43 30.536 534.91 30.264 535.134 30.264C536.222 30.264 536.766 30.808 536.766 31.896C536.766 32.184 536.414 32.792 535.71 33.72C535.038 34.616 534.11 35.656 532.926 36.84C531.742 37.992 530.414 39.144 528.942 40.296C527.502 41.416 525.998 42.344 524.43 43.08C522.894 43.816 521.406 44.184 519.966 44.184C518.206 44.184 516.862 43.768 515.934 42.936C515.038 42.104 514.398 40.984 514.014 39.576C513.662 38.136 513.47 36.52 513.438 34.728C511.806 37.064 510.11 39.144 508.35 40.968C506.622 42.76 504.91 44.184 503.214 45.24C501.518 46.296 499.934 46.824 498.462 46.824ZM515.454 22.776C512.318 24.28 509.502 26.008 507.006 27.96C504.51 29.88 502.526 31.896 501.054 34.008C499.614 36.12 498.894 38.152 498.894 40.104C498.894 40.648 499.15 40.92 499.662 40.92C500.27 40.92 501.07 40.568 502.062 39.864C503.086 39.16 504.19 38.232 505.374 37.08C506.558 35.896 507.742 34.584 508.926 33.144C510.11 31.672 511.214 30.168 512.238 28.632C513.262 27.096 514.078 25.624 514.686 24.216C514.91 23.704 515.166 23.224 515.454 22.776ZM552.215 53.448C551.511 53.448 550.966 53.128 550.582 52.488C550.198 51.88 550.006 51.192 550.006 50.424C550.006 49.944 550.262 49.032 550.774 47.688C551.287 46.376 551.975 44.76 552.839 42.84C553.735 40.888 554.759 38.76 555.911 36.456C557.063 34.12 558.295 31.704 559.607 29.208C560.919 26.68 562.231 24.168 563.543 21.672C564.887 19.176 566.183 16.808 567.431 14.568C568.679 12.328 569.831 10.328 570.887 8.568C571.303 7.928 571.799 7.368 572.375 6.888C572.983 6.408 573.655 6.168 574.391 6.168C575.127 6.168 575.719 6.472 576.167 7.08C576.647 7.656 576.887 8.344 576.887 9.144C576.887 9.432 576.583 10.232 575.975 11.544C575.367 12.824 574.535 14.504 573.479 16.584C572.423 18.632 571.191 20.984 569.783 23.64C568.407 26.296 566.919 29.144 565.319 32.184C563.751 35.192 562.135 38.28 560.471 41.448C558.839 44.616 557.239 47.768 555.671 50.904C555.351 51.608 554.887 52.2 554.279 52.68C553.671 53.192 552.983 53.448 552.215 53.448ZM603.031 27.432C601.527 28.424 599.895 29.416 598.135 30.408C596.407 31.368 594.663 32.28 592.903 33.144C591.143 34.008 589.511 34.792 588.007 35.496C586.503 36.168 585.223 36.696 584.167 37.08C583.111 37.464 582.423 37.656 582.103 37.656C581.431 37.656 580.839 37.448 580.327 37.032C579.815 36.616 579.559 36.104 579.559 35.496C579.559 34.984 580.071 34.344 581.095 33.576C582.151 32.808 583.527 31.944 585.223 30.984C586.919 30.024 588.791 29 590.839 27.912C592.919 26.824 594.983 25.704 597.031 24.552C595.335 23.464 593.655 22.44 591.991 21.48C590.359 20.52 588.855 19.656 587.479 18.888C586.135 18.088 585.063 17.4 584.263 16.824C583.463 16.216 583.063 15.736 583.063 15.384C583.063 14.648 583.287 14.04 583.735 13.56C584.183 13.08 584.871 12.84 585.799 12.84C586.055 12.84 586.615 13.016 587.479 13.368C588.343 13.72 589.399 14.2 590.647 14.808C591.895 15.416 593.239 16.12 594.679 16.92C596.151 17.688 597.607 18.504 599.047 19.368C600.519 20.232 601.879 21.096 603.127 21.96C603.767 22.408 604.199 22.872 604.423 23.352C604.679 23.8 604.807 24.232 604.807 24.648C604.807 25.128 604.663 25.608 604.375 26.088C604.119 26.536 603.671 26.984 603.031 27.432Z" fill="black"/>
</svg>
